<mxfile host="app.diagrams.net" agent="Mozilla/5.0 (Windows NT 10.0; Win64; x64) AppleWebKit/537.36 (KHTML, like Gecko) Chrome/128.0.0.0 Safari/537.36 OPR/114.0.0.0" version="24.8.3">
  <diagram name="Page-1" id="mG_NfcZ0JMgbqcFigATd">
    <mxGraphModel grid="1" page="1" gridSize="10" guides="1" tooltips="1" connect="1" arrows="1" fold="1" pageScale="1" pageWidth="850" pageHeight="1100" math="0" shadow="0">
      <root>
        <mxCell id="0" />
        <mxCell id="1" parent="0" />
        <mxCell id="sSIAPf-Off1zZm-KWsmr-7" value="sign in" style="shape=ellipse;html=1;dashed=0;whiteSpace=wrap;perimeter=ellipsePerimeter;" vertex="1" parent="1">
          <mxGeometry x="290" y="20" width="120" height="70" as="geometry" />
        </mxCell>
        <mxCell id="sSIAPf-Off1zZm-KWsmr-38" value="" style="edgeStyle=orthogonalEdgeStyle;rounded=0;orthogonalLoop=1;jettySize=auto;html=1;" edge="1" parent="1" source="sSIAPf-Off1zZm-KWsmr-8" target="sSIAPf-Off1zZm-KWsmr-20">
          <mxGeometry relative="1" as="geometry" />
        </mxCell>
        <mxCell id="sSIAPf-Off1zZm-KWsmr-8" value="selecting class" style="shape=ellipse;html=1;dashed=0;whiteSpace=wrap;perimeter=ellipsePerimeter;" vertex="1" parent="1">
          <mxGeometry x="290" y="210" width="120" height="70" as="geometry" />
        </mxCell>
        <mxCell id="sSIAPf-Off1zZm-KWsmr-18" value="marking the attendance" style="shape=ellipse;html=1;dashed=0;whiteSpace=wrap;perimeter=ellipsePerimeter;" vertex="1" parent="1">
          <mxGeometry x="290" y="391" width="120" height="70" as="geometry" />
        </mxCell>
        <mxCell id="sSIAPf-Off1zZm-KWsmr-19" value="verifying login details" style="shape=ellipse;html=1;dashed=0;whiteSpace=wrap;perimeter=ellipsePerimeter;" vertex="1" parent="1">
          <mxGeometry x="290" y="118" width="120" height="70" as="geometry" />
        </mxCell>
        <mxCell id="sSIAPf-Off1zZm-KWsmr-20" value="retrieve class data" style="shape=ellipse;html=1;dashed=0;whiteSpace=wrap;perimeter=ellipsePerimeter;" vertex="1" parent="1">
          <mxGeometry x="290" y="302" width="120" height="70" as="geometry" />
        </mxCell>
        <mxCell id="sSIAPf-Off1zZm-KWsmr-21" value="" style="shape=actor;whiteSpace=wrap;html=1;" vertex="1" parent="1">
          <mxGeometry x="630" y="40" width="40" height="60" as="geometry" />
        </mxCell>
        <mxCell id="sSIAPf-Off1zZm-KWsmr-22" value="" style="shape=actor;whiteSpace=wrap;html=1;" vertex="1" parent="1">
          <mxGeometry x="80" y="270" width="40" height="60" as="geometry" />
        </mxCell>
        <mxCell id="sSIAPf-Off1zZm-KWsmr-23" value="" style="shape=actor;whiteSpace=wrap;html=1;" vertex="1" parent="1">
          <mxGeometry x="80" y="20" width="40" height="60" as="geometry" />
        </mxCell>
        <mxCell id="sSIAPf-Off1zZm-KWsmr-24" value="" style="endArrow=classic;html=1;rounded=0;entryX=-0.017;entryY=0.6;entryDx=0;entryDy=0;entryPerimeter=0;exitX=0.9;exitY=0.5;exitDx=0;exitDy=0;exitPerimeter=0;" edge="1" parent="1" source="sSIAPf-Off1zZm-KWsmr-22" target="sSIAPf-Off1zZm-KWsmr-8">
          <mxGeometry width="50" height="50" relative="1" as="geometry">
            <mxPoint x="380" y="280" as="sourcePoint" />
            <mxPoint x="430" y="230" as="targetPoint" />
          </mxGeometry>
        </mxCell>
        <mxCell id="sSIAPf-Off1zZm-KWsmr-25" value="" style="endArrow=classic;html=1;rounded=0;entryX=0.058;entryY=0.8;entryDx=0;entryDy=0;entryPerimeter=0;exitX=0.75;exitY=0.25;exitDx=0;exitDy=0;exitPerimeter=0;" edge="1" parent="1" source="sSIAPf-Off1zZm-KWsmr-22" target="sSIAPf-Off1zZm-KWsmr-7">
          <mxGeometry width="50" height="50" relative="1" as="geometry">
            <mxPoint x="120" y="302" as="sourcePoint" />
            <mxPoint x="170" y="252" as="targetPoint" />
          </mxGeometry>
        </mxCell>
        <mxCell id="sSIAPf-Off1zZm-KWsmr-27" value="" style="endArrow=classic;html=1;rounded=0;entryX=0;entryY=0.5;entryDx=0;entryDy=0;" edge="1" parent="1" target="sSIAPf-Off1zZm-KWsmr-7">
          <mxGeometry width="50" height="50" relative="1" as="geometry">
            <mxPoint x="120" y="60" as="sourcePoint" />
            <mxPoint x="170" y="10" as="targetPoint" />
          </mxGeometry>
        </mxCell>
        <mxCell id="sSIAPf-Off1zZm-KWsmr-52" value="enter login details" style="edgeLabel;html=1;align=center;verticalAlign=middle;resizable=0;points=[];" connectable="0" vertex="1" parent="sSIAPf-Off1zZm-KWsmr-27">
          <mxGeometry x="-0.3154" y="2" relative="1" as="geometry">
            <mxPoint as="offset" />
          </mxGeometry>
        </mxCell>
        <mxCell id="sSIAPf-Off1zZm-KWsmr-30" value="viewing attendance&amp;nbsp;" style="shape=ellipse;html=1;dashed=0;whiteSpace=wrap;perimeter=ellipsePerimeter;" vertex="1" parent="1">
          <mxGeometry x="290" y="500" width="120" height="70" as="geometry" />
        </mxCell>
        <mxCell id="sSIAPf-Off1zZm-KWsmr-31" value="" style="endArrow=classic;html=1;rounded=0;exitX=0.5;exitY=1;exitDx=0;exitDy=0;entryX=0.5;entryY=0;entryDx=0;entryDy=0;" edge="1" parent="1" source="sSIAPf-Off1zZm-KWsmr-20" target="sSIAPf-Off1zZm-KWsmr-18">
          <mxGeometry width="50" height="50" relative="1" as="geometry">
            <mxPoint x="470" y="310" as="sourcePoint" />
            <mxPoint x="520" y="260" as="targetPoint" />
          </mxGeometry>
        </mxCell>
        <mxCell id="sSIAPf-Off1zZm-KWsmr-32" value="" style="endArrow=classic;html=1;rounded=0;entryX=0;entryY=0.5;entryDx=0;entryDy=0;exitX=1;exitY=0.75;exitDx=0;exitDy=0;" edge="1" parent="1" source="sSIAPf-Off1zZm-KWsmr-22" target="sSIAPf-Off1zZm-KWsmr-18">
          <mxGeometry width="50" height="50" relative="1" as="geometry">
            <mxPoint x="120" y="325" as="sourcePoint" />
            <mxPoint x="170" y="275" as="targetPoint" />
          </mxGeometry>
        </mxCell>
        <mxCell id="sSIAPf-Off1zZm-KWsmr-33" value="" style="endArrow=classic;html=1;rounded=0;entryX=0;entryY=0.5;entryDx=0;entryDy=0;" edge="1" parent="1" target="sSIAPf-Off1zZm-KWsmr-30">
          <mxGeometry width="50" height="50" relative="1" as="geometry">
            <mxPoint x="120" y="330" as="sourcePoint" />
            <mxPoint x="170" y="280" as="targetPoint" />
          </mxGeometry>
        </mxCell>
        <mxCell id="sSIAPf-Off1zZm-KWsmr-34" value="" style="endArrow=classic;html=1;rounded=0;exitX=1;exitY=0.75;exitDx=0;exitDy=0;entryX=0;entryY=0.5;entryDx=0;entryDy=0;" edge="1" parent="1" source="sSIAPf-Off1zZm-KWsmr-22" target="sSIAPf-Off1zZm-KWsmr-20">
          <mxGeometry width="50" height="50" relative="1" as="geometry">
            <mxPoint x="540" y="270" as="sourcePoint" />
            <mxPoint x="590" y="220" as="targetPoint" />
          </mxGeometry>
        </mxCell>
        <mxCell id="sSIAPf-Off1zZm-KWsmr-35" value="" style="endArrow=classic;html=1;rounded=0;exitX=0.5;exitY=1;exitDx=0;exitDy=0;entryX=0.5;entryY=0;entryDx=0;entryDy=0;" edge="1" parent="1" source="sSIAPf-Off1zZm-KWsmr-18" target="sSIAPf-Off1zZm-KWsmr-30">
          <mxGeometry width="50" height="50" relative="1" as="geometry">
            <mxPoint x="440" y="400" as="sourcePoint" />
            <mxPoint x="490" y="350" as="targetPoint" />
          </mxGeometry>
        </mxCell>
        <mxCell id="sSIAPf-Off1zZm-KWsmr-36" value="" style="endArrow=classic;html=1;rounded=0;exitX=0.5;exitY=1;exitDx=0;exitDy=0;" edge="1" parent="1" source="sSIAPf-Off1zZm-KWsmr-19" target="sSIAPf-Off1zZm-KWsmr-8">
          <mxGeometry width="50" height="50" relative="1" as="geometry">
            <mxPoint x="440" y="250" as="sourcePoint" />
            <mxPoint x="490" y="200" as="targetPoint" />
          </mxGeometry>
        </mxCell>
        <mxCell id="sSIAPf-Off1zZm-KWsmr-37" value="" style="endArrow=classic;html=1;rounded=0;exitX=0.5;exitY=1;exitDx=0;exitDy=0;entryX=0.5;entryY=0;entryDx=0;entryDy=0;" edge="1" parent="1" source="sSIAPf-Off1zZm-KWsmr-7" target="sSIAPf-Off1zZm-KWsmr-19">
          <mxGeometry width="50" height="50" relative="1" as="geometry">
            <mxPoint x="410" y="100" as="sourcePoint" />
            <mxPoint x="460" y="50" as="targetPoint" />
          </mxGeometry>
        </mxCell>
        <mxCell id="sSIAPf-Off1zZm-KWsmr-39" value="" style="endArrow=classic;html=1;rounded=0;entryX=1;entryY=0.5;entryDx=0;entryDy=0;exitX=0;exitY=0.75;exitDx=0;exitDy=0;" edge="1" parent="1" source="sSIAPf-Off1zZm-KWsmr-21" target="sSIAPf-Off1zZm-KWsmr-7">
          <mxGeometry width="50" height="50" relative="1" as="geometry">
            <mxPoint x="510" y="140" as="sourcePoint" />
            <mxPoint x="560" y="90" as="targetPoint" />
          </mxGeometry>
        </mxCell>
        <mxCell id="sSIAPf-Off1zZm-KWsmr-51" value="enter login details" style="edgeLabel;html=1;align=center;verticalAlign=middle;resizable=0;points=[];" connectable="0" vertex="1" parent="sSIAPf-Off1zZm-KWsmr-39">
          <mxGeometry x="0.0026" y="1" relative="1" as="geometry">
            <mxPoint as="offset" />
          </mxGeometry>
        </mxCell>
        <mxCell id="sSIAPf-Off1zZm-KWsmr-40" value="teacher" style="text;html=1;align=center;verticalAlign=middle;resizable=0;points=[];autosize=1;strokeColor=none;fillColor=none;" vertex="1" parent="1">
          <mxGeometry x="40" y="323" width="60" height="30" as="geometry" />
        </mxCell>
        <mxCell id="sSIAPf-Off1zZm-KWsmr-41" value="admin" style="text;html=1;align=center;verticalAlign=middle;resizable=0;points=[];autosize=1;strokeColor=none;fillColor=none;" vertex="1" parent="1">
          <mxGeometry x="50" y="78" width="60" height="30" as="geometry" />
        </mxCell>
        <mxCell id="sSIAPf-Off1zZm-KWsmr-42" value="student" style="text;html=1;align=center;verticalAlign=middle;resizable=0;points=[];autosize=1;strokeColor=none;fillColor=none;" vertex="1" parent="1">
          <mxGeometry x="580" y="98" width="60" height="30" as="geometry" />
        </mxCell>
        <mxCell id="sSIAPf-Off1zZm-KWsmr-43" value="log out" style="shape=ellipse;html=1;dashed=0;whiteSpace=wrap;perimeter=ellipsePerimeter;" vertex="1" parent="1">
          <mxGeometry x="290" y="630" width="120" height="60" as="geometry" />
        </mxCell>
        <mxCell id="sSIAPf-Off1zZm-KWsmr-44" value="" style="endArrow=classic;html=1;rounded=0;exitX=0.942;exitY=0.118;exitDx=0;exitDy=0;entryX=1;entryY=0.5;entryDx=0;entryDy=0;exitPerimeter=0;" edge="1" parent="1" source="sSIAPf-Off1zZm-KWsmr-42" target="sSIAPf-Off1zZm-KWsmr-30">
          <mxGeometry width="50" height="50" relative="1" as="geometry">
            <mxPoint x="640" y="95" as="sourcePoint" />
            <mxPoint x="420" y="65" as="targetPoint" />
          </mxGeometry>
        </mxCell>
        <mxCell id="sSIAPf-Off1zZm-KWsmr-45" value="" style="endArrow=classic;html=1;rounded=0;entryX=0.5;entryY=0;entryDx=0;entryDy=0;exitX=0.5;exitY=1;exitDx=0;exitDy=0;" edge="1" parent="1" source="sSIAPf-Off1zZm-KWsmr-30" target="sSIAPf-Off1zZm-KWsmr-43">
          <mxGeometry width="50" height="50" relative="1" as="geometry">
            <mxPoint x="690" y="220" as="sourcePoint" />
            <mxPoint x="470" y="190" as="targetPoint" />
          </mxGeometry>
        </mxCell>
        <mxCell id="sSIAPf-Off1zZm-KWsmr-46" value="verification&lt;div&gt;failed&lt;/div&gt;" style="shape=ellipse;html=1;dashed=0;whiteSpace=wrap;perimeter=ellipsePerimeter;" vertex="1" parent="1">
          <mxGeometry x="460" y="128" width="100" height="50" as="geometry" />
        </mxCell>
        <mxCell id="sSIAPf-Off1zZm-KWsmr-47" value="" style="endArrow=classic;html=1;rounded=0;exitX=1;exitY=1;exitDx=0;exitDy=0;entryX=0;entryY=0;entryDx=0;entryDy=0;" edge="1" parent="1" source="sSIAPf-Off1zZm-KWsmr-7" target="sSIAPf-Off1zZm-KWsmr-46">
          <mxGeometry width="50" height="50" relative="1" as="geometry">
            <mxPoint x="410" y="118" as="sourcePoint" />
            <mxPoint x="460" y="68" as="targetPoint" />
          </mxGeometry>
        </mxCell>
        <mxCell id="sSIAPf-Off1zZm-KWsmr-48" value="" style="endArrow=classic;html=1;rounded=0;exitX=0.5;exitY=0;exitDx=0;exitDy=0;" edge="1" parent="1" source="sSIAPf-Off1zZm-KWsmr-46">
          <mxGeometry width="50" height="50" relative="1" as="geometry">
            <mxPoint x="415" y="72" as="sourcePoint" />
            <mxPoint x="410" y="70" as="targetPoint" />
          </mxGeometry>
        </mxCell>
        <mxCell id="sSIAPf-Off1zZm-KWsmr-49" value="" style="endArrow=classic;html=1;rounded=0;entryX=0;entryY=0;entryDx=0;entryDy=0;exitX=0.75;exitY=1;exitDx=0;exitDy=0;" edge="1" parent="1" source="sSIAPf-Off1zZm-KWsmr-22" target="sSIAPf-Off1zZm-KWsmr-43">
          <mxGeometry width="50" height="50" relative="1" as="geometry">
            <mxPoint x="90" y="490" as="sourcePoint" />
            <mxPoint x="140" y="440" as="targetPoint" />
          </mxGeometry>
        </mxCell>
        <mxCell id="sSIAPf-Off1zZm-KWsmr-50" value="" style="endArrow=classic;html=1;rounded=0;exitX=0;exitY=0.75;exitDx=0;exitDy=0;entryX=1;entryY=0.5;entryDx=0;entryDy=0;" edge="1" parent="1" target="sSIAPf-Off1zZm-KWsmr-43">
          <mxGeometry width="50" height="50" relative="1" as="geometry">
            <mxPoint x="650" y="105" as="sourcePoint" />
            <mxPoint x="420" y="545" as="targetPoint" />
          </mxGeometry>
        </mxCell>
        <mxCell id="sSIAPf-Off1zZm-KWsmr-54" value="enter login details" style="text;html=1;align=center;verticalAlign=middle;resizable=0;points=[];autosize=1;strokeColor=none;fillColor=none;" vertex="1" parent="1">
          <mxGeometry x="140" y="158" width="120" height="30" as="geometry" />
        </mxCell>
      </root>
    </mxGraphModel>
  </diagram>
</mxfile>
